<mxfile host="app.diagrams.net" modified="2020-11-22T21:25:14.524Z" agent="5.0 (Macintosh; Intel Mac OS X 10_15_7) AppleWebKit/537.36 (KHTML, like Gecko) Chrome/86.0.4240.193 Safari/537.36" etag="D9U2mld8FKdEyIPATxH7" version="13.9.9" type="github">
  <diagram id="HwsBW4FB0degWpU0_Yhl" name="Page-1">
    <mxGraphModel dx="375" dy="405" grid="1" gridSize="10" guides="1" tooltips="1" connect="1" arrows="1" fold="1" page="1" pageScale="1" pageWidth="850" pageHeight="1100" math="0" shadow="0">
      <root>
        <mxCell id="0" />
        <mxCell id="1" parent="0" />
        <mxCell id="ldeY-m1lLbSWJ4PrJkTY-1" value="" style="rounded=0;whiteSpace=wrap;html=1;labelBorderColor=#FFFFFF;gradientColor=#ffffff;gradientDirection=south;fillColor=#c36f09;" parent="1" vertex="1">
          <mxGeometry x="70" y="120" width="720" height="400" as="geometry" />
        </mxCell>
        <mxCell id="ldeY-m1lLbSWJ4PrJkTY-2" value="&lt;font&gt;Beers &amp;amp; Bits&lt;/font&gt;" style="text;html=1;align=center;verticalAlign=middle;whiteSpace=wrap;rounded=0;fontSize=23;fontStyle=1;fontFamily=Montserrat Subrayada;gradientColor=#ffffff;fontColor=#a63c06;fontSource=https%3A%2F%2Ffonts.googleapis.com%2Fcss%3Ffamily%3DMontserrat%2BSubrayada;gradientDirection=north;glass=0;shadow=0;" parent="1" vertex="1">
          <mxGeometry x="310" y="120" width="230" height="40" as="geometry" />
        </mxCell>
        <mxCell id="ldeY-m1lLbSWJ4PrJkTY-8" value="Navigation Bar:&lt;br&gt;text: Architect&#39;s Daugther&lt;br&gt;background color:#EEBA0B&lt;br&gt;font color:#710000&lt;br&gt;" style="strokeWidth=1;shadow=0;dashed=0;align=center;html=1;shape=mxgraph.mockup.text.callout;linkText=;textSize=17;textColor=#666666;callDir=NW;callStyle=line;fontSize=17;fontColor=#666666;align=left;verticalAlign=top;strokeColor=#666666;rounded=0;sketch=1;fillColor=#c36f09;gradientColor=#ffffff;labelBackgroundColor=#FFF2CC;" parent="1" vertex="1">
          <mxGeometry x="80" y="10" width="230" height="150" as="geometry" />
        </mxCell>
        <mxCell id="ldeY-m1lLbSWJ4PrJkTY-9" value="&lt;h1 class=&quot;mat-text--title sticky-header__title gmat-headline-1&quot; style=&quot;box-sizing: inherit; margin: 0px; padding: 0px; border: 0px; font-weight: 400; font-stretch: normal; line-height: 64px; font-family: &amp;quot;google sans&amp;quot;, &amp;quot;helvetica neue&amp;quot;, sans-serif; vertical-align: baseline;&quot;&gt;&lt;/h1&gt;&lt;div style=&quot;text-align: left&quot;&gt;&lt;span&gt;Header:&lt;/span&gt;&lt;/div&gt;&lt;div style=&quot;text-align: left&quot;&gt;&lt;span&gt;Montserrat Subrayada&lt;/span&gt;&lt;/div&gt;&lt;div style=&quot;text-align: left&quot;&gt;&lt;span&gt;font color: #a63c06&lt;/span&gt;&lt;/div&gt;" style="strokeWidth=1;shadow=0;dashed=0;align=center;html=1;shape=mxgraph.mockup.text.callout;linkText=;textSize=17;textColor=#666666;callDir=NE;callStyle=line;fontSize=17;align=right;verticalAlign=middle;strokeColor=#666666;rounded=0;sketch=1;fillColor=#c36f09;gradientColor=#ffffff;textDirection=ltr;labelPosition=center;verticalLabelPosition=middle;fontColor=#666666;labelBackgroundColor=#FFF2CC;" parent="1" vertex="1">
          <mxGeometry x="500" y="20" width="205" height="100" as="geometry" />
        </mxCell>
        <mxCell id="ldeY-m1lLbSWJ4PrJkTY-27" value="" style="html=1;shadow=0;dashed=0;shape=mxgraph.bootstrap.checkbox2;labelPosition=right;verticalLabelPosition=middle;align=left;verticalAlign=middle;gradientColor=#DEDEDE;fillColor=#EDEDED;checked=0;spacing=5;checkedFill=#0085FC;checkedStroke=#ffffff;rounded=0;sketch=1;strokeWidth=2;fontFamily=Comic Sans MS;fontSize=23;fontColor=#710000;strokeColor=#CC6600;" parent="1" vertex="1">
          <mxGeometry x="530" y="400" width="160" height="80" as="geometry" />
        </mxCell>
        <mxCell id="ldeY-m1lLbSWJ4PrJkTY-28" value="" style="html=1;shadow=0;dashed=0;shape=mxgraph.bootstrap.checkbox2;labelPosition=right;verticalLabelPosition=middle;align=left;verticalAlign=middle;gradientColor=#DEDEDE;fillColor=#EDEDED;checked=0;spacing=5;checkedFill=#0085FC;checkedStroke=#ffffff;rounded=0;sketch=1;strokeWidth=2;fontFamily=Comic Sans MS;fontSize=23;fontColor=#710000;strokeColor=#CC6600;" parent="1" vertex="1">
          <mxGeometry x="170" y="230" width="210" height="250" as="geometry" />
        </mxCell>
        <mxCell id="ldeY-m1lLbSWJ4PrJkTY-30" value="" style="html=1;shadow=0;dashed=0;shape=mxgraph.bootstrap.checkbox2;labelPosition=right;verticalLabelPosition=middle;align=left;verticalAlign=middle;gradientColor=#DEDEDE;fillColor=#EDEDED;checked=0;spacing=5;checkedFill=#0085FC;checkedStroke=#ffffff;rounded=0;sketch=1;strokeWidth=2;fontFamily=Comic Sans MS;fontSize=23;fontColor=#710000;strokeColor=#CC6600;" parent="1" vertex="1">
          <mxGeometry x="530" y="230" width="160" height="160" as="geometry" />
        </mxCell>
        <mxCell id="ldeY-m1lLbSWJ4PrJkTY-32" value="" style="html=1;shadow=0;dashed=0;shape=mxgraph.bootstrap.checkbox2;labelPosition=right;verticalLabelPosition=middle;align=left;verticalAlign=middle;gradientColor=#DEDEDE;fillColor=#EDEDED;checked=0;spacing=5;checkedFill=#0085FC;checkedStroke=#ffffff;rounded=0;sketch=1;strokeWidth=2;fontFamily=Comic Sans MS;fontSize=23;fontColor=#710000;whiteSpace=wrap;strokeColor=#CC6600;" parent="1" vertex="1">
          <mxGeometry x="390" y="230" width="130" height="250" as="geometry" />
        </mxCell>
        <mxCell id="ldeY-m1lLbSWJ4PrJkTY-35" value="&lt;font face=&quot;Montserrat Subrayada&quot; data-font-src=&quot;https://fonts.googleapis.com/css?family=Montserrat+Subrayada&quot; style=&quot;font-size: 14px&quot;&gt;Brewery Locator&lt;/font&gt;" style="text;strokeColor=none;fillColor=none;html=1;fontSize=24;fontStyle=1;verticalAlign=middle;align=center;rounded=0;shadow=0;sketch=1;fontColor=#710000;" parent="1" vertex="1">
          <mxGeometry x="560" y="230" width="100" height="40" as="geometry" />
        </mxCell>
        <mxCell id="ldeY-m1lLbSWJ4PrJkTY-36" value="&lt;font face=&quot;Montserrat Subrayada&quot; data-font-src=&quot;https://fonts.googleapis.com/css?family=Montserrat+Subrayada&quot; style=&quot;font-size: 22px&quot;&gt;Beer &amp;amp; Pairings&lt;/font&gt;" style="text;strokeColor=none;fillColor=none;html=1;fontSize=24;fontStyle=1;verticalAlign=middle;align=center;rounded=0;shadow=0;sketch=1;fontColor=#710000;" parent="1" vertex="1">
          <mxGeometry x="225" y="235" width="100" height="40" as="geometry" />
        </mxCell>
        <mxCell id="ldeY-m1lLbSWJ4PrJkTY-37" value="&lt;font face=&quot;Montserrat Subrayada&quot; data-font-src=&quot;https://fonts.googleapis.com/css?family=Montserrat+Subrayada&quot; style=&quot;font-size: 17px;&quot;&gt;Food Trivia&lt;/font&gt;" style="text;strokeColor=none;fillColor=none;html=1;fontSize=17;fontStyle=1;verticalAlign=middle;align=center;rounded=0;shadow=0;sketch=1;fontColor=#710000;" parent="1" vertex="1">
          <mxGeometry x="560" y="400" width="100" height="25" as="geometry" />
        </mxCell>
        <mxCell id="ldeY-m1lLbSWJ4PrJkTY-38" value="&lt;font face=&quot;Montserrat Subrayada&quot; data-font-src=&quot;https://fonts.googleapis.com/css?family=Montserrat+Subrayada&quot; style=&quot;font-size: 21px;&quot;&gt;Recipes&lt;/font&gt;" style="text;strokeColor=none;fillColor=none;html=1;fontSize=21;fontStyle=1;verticalAlign=middle;align=center;rounded=0;shadow=0;sketch=1;fontColor=#710000;" parent="1" vertex="1">
          <mxGeometry x="405" y="235" width="100" height="35" as="geometry" />
        </mxCell>
        <mxCell id="aE-Tb7ja2fJjONzUVX4V-2" value="" style="endArrow=classic;startArrow=classic;html=1;" parent="1" source="ldeY-m1lLbSWJ4PrJkTY-11" edge="1">
          <mxGeometry width="50" height="50" relative="1" as="geometry">
            <mxPoint x="400" y="240" as="sourcePoint" />
            <mxPoint x="450" y="190" as="targetPoint" />
            <Array as="points">
              <mxPoint x="280" y="160" />
            </Array>
          </mxGeometry>
        </mxCell>
        <mxCell id="aE-Tb7ja2fJjONzUVX4V-4" value="" style="endArrow=classic;startArrow=classic;html=1;exitX=1;exitY=0.75;exitDx=0;exitDy=0;" parent="1" source="ldeY-m1lLbSWJ4PrJkTY-30" target="ldeY-m1lLbSWJ4PrJkTY-1" edge="1">
          <mxGeometry width="50" height="50" relative="1" as="geometry">
            <mxPoint x="400" y="310" as="sourcePoint" />
            <mxPoint x="450" y="260" as="targetPoint" />
            <Array as="points">
              <mxPoint x="730" y="360" />
            </Array>
          </mxGeometry>
        </mxCell>
        <mxCell id="aE-Tb7ja2fJjONzUVX4V-5" value="Layout&lt;br&gt;Background color:&amp;nbsp;&lt;span style=&quot;color: rgb(102 , 102 , 102) ; text-align: left&quot;&gt;&lt;font style=&quot;font-size: 12px&quot;&gt;c36f09&lt;/font&gt;&lt;/span&gt;" style="text;html=1;strokeColor=none;fillColor=none;align=center;verticalAlign=middle;whiteSpace=wrap;rounded=0;labelBackgroundColor=#FFF2CC;" parent="1" vertex="1">
          <mxGeometry x="750" y="340" width="130" height="70" as="geometry" />
        </mxCell>
        <mxCell id="TB6kus4rQHUlrD64qd-1-4" value="" style="shape=rect;strokeColor=none;fillColor=#EEBA0B;rounded=1;shadow=0;sketch=0;" vertex="1" parent="1">
          <mxGeometry x="620" y="160" width="150" height="50" as="geometry" />
        </mxCell>
        <mxCell id="TB6kus4rQHUlrD64qd-1-5" value="" style="html=1;strokeWidth=1;shadow=0;dashed=0;shape=mxgraph.ios7ui.marginRect;rx=3;ry=3;rectMargin=5;strokeColor=none;" vertex="1" parent="TB6kus4rQHUlrD64qd-1-4">
          <mxGeometry x="17.241379310344826" y="10" width="132.75862068965517" height="30" as="geometry" />
        </mxCell>
        <mxCell id="TB6kus4rQHUlrD64qd-1-6" value="Search" style="shape=mxgraph.ios7.icons.looking_glass;strokeColor=#e0e0e0;fillColor=none;fontColor=#e0e0e0;labelPosition=right;verticalLabelPosition=middle;align=left;verticalAlign=middle;fontSize=6;fontStyle=0;spacingTop=2;" vertex="1" parent="TB6kus4rQHUlrD64qd-1-4">
          <mxGeometry x="0.5" y="0.5" width="6" height="6" relative="1" as="geometry">
            <mxPoint x="-17" y="-3" as="offset" />
          </mxGeometry>
        </mxCell>
        <mxCell id="ldeY-m1lLbSWJ4PrJkTY-11" value="" style="strokeWidth=1;shadow=0;dashed=0;align=center;html=1;shape=mxgraph.mockup.rrect;rSize=10;rounded=0;sketch=1;fontFamily=Comic Sans MS;fontSize=23;fontColor=#710000;gradientDirection=north;strokeColor=none;fillColor=#eeba0b;" parent="1" vertex="1">
          <mxGeometry x="90" y="160" width="540" height="50" as="geometry" />
        </mxCell>
        <mxCell id="ldeY-m1lLbSWJ4PrJkTY-12" value="Beer &amp;amp; Pairings" style="strokeColor=inherit;fillColor=inherit;gradientColor=inherit;strokeWidth=1;shadow=1;dashed=0;align=center;html=1;shape=mxgraph.mockup.rrect;rSize=0;fontSize=17;fontStyle=1;resizeHeight=1;fontColor=#710000;fontFamily=Architects Daughter;fontSource=https%3A%2F%2Ffonts.googleapis.com%2Fcss%3Ffamily%3DArchitects%2BDaughter;" parent="ldeY-m1lLbSWJ4PrJkTY-11" vertex="1">
          <mxGeometry width="160" height="50" relative="1" as="geometry">
            <mxPoint x="135" as="offset" />
          </mxGeometry>
        </mxCell>
        <mxCell id="ldeY-m1lLbSWJ4PrJkTY-13" value="Recipes" style="strokeColor=inherit;fillColor=inherit;gradientColor=inherit;strokeWidth=1;shadow=1;dashed=0;align=center;html=1;shape=mxgraph.mockup.rrect;rSize=0;fontSize=17;fontStyle=1;resizeHeight=1;fontColor=#710000;fontFamily=Architects Daughter;fontSource=https%3A%2F%2Ffonts.googleapis.com%2Fcss%3Ffamily%3DArchitects%2BDaughter;sketch=0;" parent="ldeY-m1lLbSWJ4PrJkTY-11" vertex="1">
          <mxGeometry width="120" height="50" relative="1" as="geometry">
            <mxPoint x="285" as="offset" />
          </mxGeometry>
        </mxCell>
        <mxCell id="ldeY-m1lLbSWJ4PrJkTY-14" value="Brewery Search" style="strokeColor=inherit;fillColor=inherit;gradientColor=inherit;strokeWidth=1;shadow=0;dashed=0;align=center;html=1;shape=mxgraph.mockup.rightButton;rSize=10;fontSize=17;fontStyle=1;resizeHeight=1;fontColor=#710000;fontFamily=Architects Daughter;fontSource=https%3A%2F%2Ffonts.googleapis.com%2Fcss%3Ffamily%3DArchitects%2BDaughter;sketch=0;" parent="ldeY-m1lLbSWJ4PrJkTY-11" vertex="1">
          <mxGeometry x="1" width="136" height="50" relative="1" as="geometry">
            <mxPoint x="-136" as="offset" />
          </mxGeometry>
        </mxCell>
        <mxCell id="ldeY-m1lLbSWJ4PrJkTY-15" value="Home" style="strokeWidth=1;shadow=1;dashed=0;align=center;html=1;shape=mxgraph.mockup.leftButton;rSize=10;fontSize=17;fontStyle=1;resizeHeight=1;fillColor=#C36F09;fontColor=#710000;fontFamily=Architects Daughter;fontSource=https%3A%2F%2Ffonts.googleapis.com%2Fcss%3Ffamily%3DArchitects%2BDaughter;strokeColor=none;" parent="ldeY-m1lLbSWJ4PrJkTY-11" vertex="1">
          <mxGeometry width="140" height="50" relative="1" as="geometry" />
        </mxCell>
        <mxCell id="TB6kus4rQHUlrD64qd-1-13" value="" style="strokeWidth=1;shadow=0;dashed=0;align=center;html=1;shape=mxgraph.mockup.rrect;rSize=10;rounded=0;sketch=1;fontFamily=Comic Sans MS;fontSize=23;fontColor=#710000;gradientDirection=north;strokeColor=none;fillColor=#eeba0b;" vertex="1" parent="1">
          <mxGeometry x="155" y="500" width="540" height="20" as="geometry" />
        </mxCell>
        <mxCell id="TB6kus4rQHUlrD64qd-1-14" value="Beer &amp;amp; Pairings" style="strokeColor=inherit;fillColor=inherit;gradientColor=inherit;strokeWidth=1;shadow=1;dashed=0;align=center;html=1;shape=mxgraph.mockup.rrect;rSize=0;fontSize=17;fontStyle=1;resizeHeight=1;fontColor=#710000;fontFamily=Architects Daughter;fontSource=https%3A%2F%2Ffonts.googleapis.com%2Fcss%3Ffamily%3DArchitects%2BDaughter;" vertex="1" parent="TB6kus4rQHUlrD64qd-1-13">
          <mxGeometry width="160" height="20" relative="1" as="geometry">
            <mxPoint x="135" as="offset" />
          </mxGeometry>
        </mxCell>
        <mxCell id="TB6kus4rQHUlrD64qd-1-15" value="Recipes" style="strokeColor=inherit;fillColor=inherit;gradientColor=inherit;strokeWidth=1;shadow=1;dashed=0;align=center;html=1;shape=mxgraph.mockup.rrect;rSize=0;fontSize=17;fontStyle=1;resizeHeight=1;fontColor=#710000;fontFamily=Architects Daughter;fontSource=https%3A%2F%2Ffonts.googleapis.com%2Fcss%3Ffamily%3DArchitects%2BDaughter;sketch=0;" vertex="1" parent="TB6kus4rQHUlrD64qd-1-13">
          <mxGeometry width="120" height="20" relative="1" as="geometry">
            <mxPoint x="285" as="offset" />
          </mxGeometry>
        </mxCell>
        <mxCell id="TB6kus4rQHUlrD64qd-1-16" value="Brewery Search" style="strokeColor=inherit;fillColor=inherit;gradientColor=inherit;strokeWidth=1;shadow=0;dashed=0;align=center;html=1;shape=mxgraph.mockup.rightButton;rSize=10;fontSize=17;fontStyle=1;resizeHeight=1;fontColor=#710000;fontFamily=Architects Daughter;fontSource=https%3A%2F%2Ffonts.googleapis.com%2Fcss%3Ffamily%3DArchitects%2BDaughter;sketch=0;" vertex="1" parent="TB6kus4rQHUlrD64qd-1-13">
          <mxGeometry x="1" width="136" height="20" relative="1" as="geometry">
            <mxPoint x="-136" as="offset" />
          </mxGeometry>
        </mxCell>
        <mxCell id="TB6kus4rQHUlrD64qd-1-17" value="Home" style="strokeWidth=1;shadow=1;dashed=0;align=center;html=1;shape=mxgraph.mockup.leftButton;rSize=10;fontSize=17;fontStyle=1;resizeHeight=1;fillColor=#C36F09;fontColor=#710000;fontFamily=Architects Daughter;fontSource=https%3A%2F%2Ffonts.googleapis.com%2Fcss%3Ffamily%3DArchitects%2BDaughter;strokeColor=none;" vertex="1" parent="TB6kus4rQHUlrD64qd-1-13">
          <mxGeometry width="140" height="20" relative="1" as="geometry" />
        </mxCell>
        <mxCell id="TB6kus4rQHUlrD64qd-1-19" value="Add a scroll&lt;br&gt;Beer, recipes, locator&amp;nbsp;" style="text;html=1;strokeColor=none;fillColor=none;align=center;verticalAlign=middle;whiteSpace=wrap;rounded=0;shadow=0;labelBackgroundColor=#FFF2CC;sketch=0;fontColor=#666666;" vertex="1" parent="1">
          <mxGeometry x="80" y="340" width="85" height="20" as="geometry" />
        </mxCell>
        <mxCell id="TB6kus4rQHUlrD64qd-1-23" value="" style="endArrow=classic;startArrow=classic;html=1;fontColor=#666666;" edge="1" parent="1">
          <mxGeometry width="50" height="50" relative="1" as="geometry">
            <mxPoint x="120" y="330" as="sourcePoint" />
            <mxPoint x="530" y="290" as="targetPoint" />
            <Array as="points">
              <mxPoint x="120" y="290" />
              <mxPoint x="410" y="290" />
              <mxPoint x="530" y="290" />
            </Array>
          </mxGeometry>
        </mxCell>
      </root>
    </mxGraphModel>
  </diagram>
</mxfile>
